# xmcd CD database file
#
# Track frame offsets:
#	183
#	15728
#	33080
#	43358
#	56158
#	76418
#	94253
#	108893
#	123365
#	138105
#	151318
#	167653
#	187123
#	201253
#	215123
#	231435
#
# Disc length: 3287 seconds
#
# Revision: 0
# Processed by: cddbd v1.4PL0 Copyright (c) Steve Scherf et al.
# Submitted via: Feurio! 1.64 - http://www.feurio.com
#
DISCID=e10cd510
DTITLE=Various Artist - Super Schlagerparade 1971
DYEAR=1900
DGENRE=Schlager
TTITLE0=Roy Blck und Anita - Schön ist es auf der Welt zu sein
TTITLE1=Freddy Quinn - St. Helena
TTITLE2=Ramona - Alles was wir woll´n auf Erden
TTITLE3=Bata Illic - Judy I Love You
TTITLE4=Daliah Lavi - Wer hat mein Lied so zerstört, Ma
TTITLE5=Ulli Martin - Monika
TTITLE6=Chris Roberts - Hab´ Ich die heute schon gesagt, dass ich dich liebe?
TTITLE7=Daisy Door - Du lebst in Deiner Welt
TTITLE8=Tony Marshall - Komm gib mir Deine Hand
TTITLE9=Marianne Rosenberg - Fremder Mann
TTITLE10=Ulli Martin - Ich träume mit offenen Augen von Dir
TTITLE11=Vicky Leandros - Ich bin
TTITLE12=Ricky Shayne - Ginny, komm näher
TTITLE13=Wolfgang - Abraham
TTITLE14=Daliah Lavi - Willst Du mit mir geh´n
TTITLE15=Karel Gott - Schicksalsmelodie
EXTD=
EXTT0=
EXTT1=
EXTT2=
EXTT3=
EXTT4=
EXTT5=
EXTT6=
EXTT7=
EXTT8=
EXTT9=
EXTT10=
EXTT11=
EXTT12=
EXTT13=
EXTT14=
EXTT15=
PLAYORDER=
